<?xml version="1.0" encoding="UTF-8"?>
<svg id="Layer_2" data-name="Layer 2" xmlns="http://www.w3.org/2000/svg" viewBox="0 0 445.36 286.21">
  <defs>
    <style>
      .cls-1 {
        fill: #0a3428;
      }
    </style>
  </defs>
  <g id="Layer_1-2" data-name="Layer 1">
    <polygon class="cls-1" points="317.92 57.2 317.92 57.19 445.36 57.19 445.36 0 283.77 0 283.77 .08 283.75 .13 240.42 80.73 200.18 .24 142.95 .24 0 286.19 63.35 286.19 110.24 193.54 110.3 193.54 171.59 70.95 207.29 142.37 207.29 142.38 211.79 151.36 231.84 191.48 279.19 286.19 279.2 286.19 279.2 286.19 279.21 286.19 279.21 286.19 279.21 286.21 440.79 286.21 440.79 229.02 314.56 229.02 314.56 229.01 306.36 212.62 271.69 143.27 317.92 57.2"/>
  </g>
</svg>