<?xml version="1.0" encoding="UTF-8"?>
<svg id="Layer_2" data-name="Layer 2" xmlns="http://www.w3.org/2000/svg" viewBox="0 0 1095.21 1097.82">
  <defs>
    <style>
      .cls-1 {
        fill: #0a3428;
      }

      .cls-2 {
        fill: #fff;
      }
    </style>
  </defs>
  <g id="Layer_1-2" data-name="Layer 1">
    <g>
      <rect class="cls-1" width="1095.21" height="1097.82"/>
      <polygon class="cls-2" points="642.84 463.01 642.85 463 770.28 463 770.28 405.81 608.7 405.81 608.7 405.88 608.68 405.94 565.35 486.53 525.11 406.04 467.88 406.04 324.93 692 388.28 692 435.17 599.35 435.23 599.35 496.52 476.76 532.22 548.18 532.22 548.18 536.71 557.17 556.77 597.28 604.11 692 604.13 692 604.13 692 604.13 692 604.14 692 604.14 692.02 765.72 692.02 765.72 634.82 639.49 634.82 639.49 634.82 631.29 618.43 596.62 549.07 642.84 463.01"/>
    </g>
  </g>
</svg>